<?xml version="1.0" encoding="UTF-8" standalone="no"?>
<!DOCTYPE svg PUBLIC "-//W3C//DTD SVG 1.1//EN" "http://www.w3.org/Graphics/SVG/1.1/DTD/svg11.dtd">
<svg version="1.1" xmlns="http://www.w3.org/2000/svg" xmlns:xlink="http://www.w3.org/1999/xlink" preserveAspectRatio="xMidYMid meet" viewBox="0 0 640 640" width="640" height="640"><defs><path d="M127.56 154.76L528.91 154.76L528.91 501.56L127.56 501.56L127.56 154.76Z" id="asoNTaqSy"></path><path d="M346.24 1.06L359.14 2.37L371.9 4.19L384.48 6.5L396.89 9.3L409.11 12.57L421.13 16.31L432.95 20.51L444.55 25.15L455.92 30.22L467.05 35.72L477.93 41.63L488.55 47.94L498.91 54.65L508.98 61.74L518.76 69.2L528.24 77.03L537.42 85.21L546.27 93.73L554.79 102.58L562.96 111.75L570.79 121.23L578.25 131.01L585.34 141.08L592.05 151.44L598.37 162.06L604.28 172.94L609.78 184.07L614.85 195.44L619.49 207.04L623.68 218.85L627.42 230.88L630.7 243.1L633.5 255.51L635.81 268.09L637.63 280.84L638.94 293.75L639.73 306.81L640 320L639.73 333.19L638.94 346.24L637.63 359.15L635.81 371.9L633.5 384.49L630.7 396.89L627.42 409.12L623.68 421.14L619.49 432.96L614.85 444.55L609.78 455.92L604.28 467.05L598.37 477.94L592.05 488.56L585.34 498.91L578.25 508.98L570.79 518.77L562.96 528.25L554.79 537.42L546.27 546.27L537.42 554.79L528.24 562.97L518.76 570.8L508.98 578.26L498.91 585.35L488.55 592.06L477.93 598.37L467.05 604.28L455.92 609.78L444.55 614.86L432.95 619.49L421.13 623.69L409.11 627.43L396.89 630.7L384.48 633.5L371.9 635.82L359.14 637.63L346.24 638.94L333.18 639.74L319.99 640L306.8 639.74L293.75 638.94L280.84 637.63L268.09 635.82L255.5 633.5L243.09 630.7L230.87 627.43L218.85 623.69L207.03 619.49L195.44 614.86L184.07 609.78L172.94 604.28L162.06 598.37L151.43 592.06L141.08 585.35L131.01 578.26L121.23 570.8L111.75 562.97L102.57 554.79L93.72 546.27L85.21 537.42L77.03 528.25L69.2 518.77L61.74 508.98L54.65 498.91L47.94 488.56L41.63 477.94L35.72 467.05L30.22 455.92L25.15 444.55L20.51 432.96L16.31 421.14L12.57 409.12L9.3 396.89L6.5 384.49L4.19 371.9L2.37 359.15L1.06 346.24L0.27 333.19L0 320L0.27 306.81L1.06 293.75L2.37 280.84L4.19 268.09L6.5 255.51L9.3 243.1L12.57 230.88L16.31 218.86L20.51 207.04L25.15 195.44L30.22 184.07L35.72 172.94L41.63 162.06L47.94 151.44L54.65 141.09L61.74 131.02L69.2 121.23L77.03 111.75L85.21 102.58L93.72 93.73L102.57 85.21L111.75 77.03L121.23 69.21L131.01 61.74L141.08 54.65L151.43 47.95L162.06 41.63L172.94 35.72L184.07 30.22L195.44 25.15L207.03 20.51L218.85 16.31L230.87 12.57L243.09 9.3L255.5 6.5L268.09 4.19L280.84 2.37L293.75 1.06L306.8 0.27L319.99 0L333.18 0.27L346.24 1.06ZM190 392.14L188.7 392.34L187.43 392.61L186.18 392.95L184.96 393.36L183.78 393.84L182.63 394.39L181.52 395L180.45 395.67L179.42 396.39L178.43 397.18L177.5 398.01L176.61 398.9L175.77 399.84L174.99 400.82L174.26 401.85L173.59 402.92L172.98 404.03L172.44 405.18L171.96 406.37L171.54 407.58L171.2 408.83L170.93 410.11L170.73 411.41L170.61 412.73L170.57 414.08L170.61 415.43L170.73 416.76L170.93 418.06L171.2 419.33L171.54 420.58L171.96 421.8L172.44 422.98L172.98 424.13L173.59 425.24L174.26 426.32L174.99 427.35L175.77 428.33L176.61 429.27L177.49 430.16L178.43 430.99L179.42 431.78L180.45 432.51L181.52 433.17L182.63 433.78L183.78 434.33L184.96 434.81L186.18 435.22L187.43 435.56L188.7 435.83L190 436.03L191.33 436.15L192.68 436.19L194.02 436.15L195.35 436.03L196.65 435.83L197.93 435.56L199.17 435.22L200.39 434.81L201.58 434.33L202.72 433.78L203.84 433.17L204.91 432.51L205.94 431.78L206.92 430.99L207.86 430.16L208.75 429.27L209.58 428.33L210.37 427.35L211.1 426.32L211.76 425.24L212.37 424.13L212.92 422.98L213.4 421.8L213.81 420.58L214.15 419.33L214.43 418.06L214.62 416.76L214.74 415.43L214.78 414.08L214.74 412.73L214.62 411.41L214.43 410.11L214.15 408.83L213.81 407.58L213.4 406.37L212.92 405.18L212.37 404.03L211.76 402.92L211.1 401.85L210.37 400.82L209.58 399.84L208.75 398.9L207.86 398.01L206.92 397.18L205.94 396.39L204.91 395.67L203.84 395L202.72 394.39L201.58 393.84L200.39 393.36L199.17 392.95L197.93 392.61L196.65 392.34L195.35 392.14L194.02 392.02L192.68 391.98L191.33 392.02L190 392.14ZM261.28 390.56L260.37 390.62L259.48 390.71L258.6 390.83L257.73 390.99L256.87 391.19L256.03 391.41L255.19 391.67L254.38 391.96L253.57 392.28L252.79 392.63L252.02 393.01L251.27 393.42L250.53 393.86L249.81 394.32L249.12 394.81L248.44 395.33L247.79 395.87L247.15 396.44L246.54 397.03L245.95 397.64L245.38 398.27L244.84 398.93L244.33 399.6L243.84 400.3L243.37 401.02L242.94 401.75L242.53 402.5L242.15 403.27L241.8 404.06L241.48 404.86L241.19 405.68L240.93 406.51L240.7 407.36L240.51 408.21L240.35 409.09L240.22 409.97L240.13 410.86L240.08 411.76L240.06 412.67L240.08 413.59L240.13 414.49L240.22 415.38L240.35 416.26L240.51 417.13L240.7 417.99L240.93 418.84L241.19 419.67L241.48 420.49L241.8 421.29L242.15 422.08L242.53 422.85L242.94 423.6L243.37 424.33L243.84 425.05L244.33 425.74L244.84 426.42L245.38 427.08L245.95 427.71L246.54 428.32L247.15 428.91L247.79 429.48L248.44 430.02L249.12 430.54L249.81 431.03L250.53 431.49L251.27 431.93L252.02 432.34L252.79 432.72L253.57 433.07L254.38 433.39L255.19 433.68L256.03 433.94L256.87 434.16L257.73 434.36L258.6 434.52L259.48 434.64L260.37 434.73L261.28 434.79L262.19 434.81L469.43 434.81L470.34 434.79L471.24 434.73L472.14 434.64L473.02 434.52L473.89 434.36L474.75 434.16L475.59 433.94L476.42 433.68L477.24 433.39L478.04 433.07L478.83 432.72L479.6 432.34L480.35 431.93L481.09 431.49L481.8 431.03L482.5 430.54L483.17 430.02L483.83 429.48L484.46 428.91L485.08 428.32L485.67 427.71L486.23 427.08L486.77 426.42L487.29 425.74L487.78 425.05L488.24 424.33L488.68 423.6L489.09 422.85L489.47 422.08L489.82 421.29L490.14 420.49L490.43 419.67L490.69 418.84L490.92 417.99L491.11 417.13L491.27 416.26L491.4 415.38L491.49 414.49L491.54 413.59L491.56 412.67L491.54 411.76L491.49 410.86L491.4 409.97L491.27 409.09L491.11 408.21L490.92 407.36L490.69 406.51L490.43 405.68L490.14 404.86L489.82 404.06L489.47 403.27L489.09 402.5L488.68 401.75L488.24 401.02L487.78 400.3L487.29 399.6L486.77 398.93L486.23 398.27L485.67 397.64L485.08 397.03L484.46 396.44L483.83 395.87L483.17 395.33L482.5 394.81L481.8 394.32L481.09 393.86L480.35 393.42L479.6 393.01L478.83 392.63L478.04 392.28L477.24 391.96L476.42 391.67L475.59 391.41L474.75 391.19L473.89 390.99L473.02 390.83L472.14 390.71L471.24 390.62L470.34 390.56L469.43 390.54L262.19 390.54L261.28 390.56ZM190 298.05L188.7 298.25L187.43 298.52L186.18 298.86L184.96 299.27L183.78 299.75L182.63 300.3L181.52 300.91L180.45 301.57L179.42 302.3L178.43 303.09L177.5 303.92L176.61 304.81L175.77 305.75L174.99 306.73L174.26 307.76L173.59 308.83L172.98 309.94L172.44 311.09L171.96 312.28L171.54 313.49L171.2 314.74L170.93 316.02L170.73 317.32L170.61 318.64L170.57 319.99L170.61 321.34L170.73 322.67L170.93 323.97L171.2 325.25L171.54 326.49L171.96 327.71L172.44 328.9L172.98 330.05L173.59 331.16L174.26 332.23L174.99 333.26L175.77 334.24L176.61 335.18L177.49 336.07L178.43 336.91L179.42 337.69L180.45 338.42L181.52 339.09L182.63 339.7L183.78 340.24L184.96 340.72L186.18 341.14L187.43 341.48L188.7 341.75L190 341.95L191.33 342.07L192.68 342.11L194.02 342.07L195.35 341.95L196.65 341.75L197.93 341.48L199.17 341.14L200.39 340.72L201.58 340.24L202.72 339.7L203.84 339.09L204.91 338.42L205.94 337.69L206.92 336.91L207.86 336.07L208.75 335.18L209.58 334.25L210.37 333.26L211.1 332.23L211.76 331.16L212.37 330.05L212.92 328.9L213.4 327.71L213.81 326.49L214.15 325.25L214.43 323.97L214.62 322.67L214.74 321.34L214.78 319.99L214.74 318.64L214.62 317.32L214.43 316.02L214.15 314.74L213.81 313.49L213.4 312.28L212.92 311.09L212.37 309.94L211.76 308.83L211.1 307.76L210.37 306.73L209.58 305.75L208.75 304.81L207.86 303.92L206.92 303.09L205.94 302.3L204.91 301.57L203.84 300.91L202.72 300.3L201.58 299.75L200.39 299.27L199.17 298.86L197.93 298.52L196.65 298.25L195.35 298.05L194.02 297.93L192.68 297.89L191.33 297.93L190 298.05ZM261.28 297.19L260.37 297.25L259.48 297.34L258.6 297.46L257.73 297.62L256.87 297.82L256.03 298.05L255.19 298.3L254.38 298.59L253.57 298.91L252.79 299.27L252.02 299.65L251.27 300.05L250.53 300.49L249.81 300.96L249.12 301.45L248.44 301.96L247.79 302.5L247.15 303.07L246.54 303.66L245.95 304.27L245.38 304.9L244.84 305.56L244.33 306.24L243.84 306.93L243.37 307.65L242.94 308.38L242.53 309.14L242.15 309.91L241.8 310.69L241.48 311.49L241.19 312.31L240.93 313.14L240.7 313.99L240.51 314.85L240.35 315.72L240.22 316.6L240.13 317.49L240.08 318.39L240.06 319.31L240.08 320.22L240.13 321.12L240.22 322.01L240.35 322.9L240.51 323.77L240.7 324.62L240.93 325.47L241.19 326.3L241.48 327.12L241.8 327.92L242.15 328.71L242.53 329.48L242.94 330.23L243.37 330.96L243.84 331.68L244.33 332.38L244.84 333.05L245.38 333.71L245.95 334.34L246.54 334.96L247.15 335.54L247.79 336.11L248.44 336.65L249.12 337.17L249.81 337.66L250.53 338.12L251.27 338.56L252.02 338.97L252.79 339.35L253.57 339.7L254.38 340.02L255.19 340.31L256.03 340.57L256.87 340.79L257.73 340.99L258.6 341.15L259.48 341.27L260.37 341.36L261.28 341.42L262.19 341.44L469.43 341.44L470.34 341.42L471.24 341.36L472.14 341.27L473.02 341.15L473.89 340.99L474.75 340.79L475.59 340.57L476.42 340.31L477.24 340.02L478.04 339.7L478.83 339.35L479.6 338.97L480.35 338.56L481.09 338.12L481.8 337.66L482.5 337.17L483.17 336.65L483.83 336.11L484.46 335.54L485.08 334.95L485.67 334.34L486.23 333.71L486.77 333.05L487.29 332.38L487.78 331.68L488.24 330.96L488.68 330.23L489.09 329.48L489.47 328.71L489.82 327.92L490.14 327.12L490.43 326.3L490.69 325.47L490.92 324.62L491.11 323.77L491.27 322.9L491.4 322.01L491.49 321.12L491.54 320.22L491.56 319.31L491.54 318.39L491.49 317.49L491.4 316.6L491.27 315.72L491.11 314.85L490.92 313.99L490.69 313.14L490.43 312.31L490.14 311.49L489.82 310.69L489.47 309.91L489.09 309.14L488.68 308.38L488.24 307.65L487.78 306.93L487.29 306.24L486.77 305.56L486.23 304.9L485.67 304.27L485.08 303.66L484.46 303.07L483.83 302.5L483.17 301.96L482.5 301.45L481.8 300.96L481.09 300.49L480.35 300.05L479.6 299.65L478.83 299.27L478.04 298.91L477.24 298.59L476.42 298.3L475.59 298.05L474.75 297.82L473.89 297.62L473.02 297.46L472.14 297.34L471.24 297.25L470.34 297.19L469.43 297.18L262.19 297.18L261.28 297.19ZM261.28 203.82L260.37 203.88L259.48 203.97L258.6 204.09L257.73 204.25L256.87 204.45L256.03 204.67L255.19 204.93L254.38 205.22L253.57 205.54L252.79 205.9L252.02 206.28L251.27 206.68L250.53 207.12L249.81 207.59L249.12 208.08L248.44 208.59L247.79 209.13L247.15 209.7L246.54 210.29L245.95 210.9L245.38 211.53L244.84 212.19L244.33 212.87L243.84 213.56L243.37 214.28L242.94 215.01L242.53 215.77L242.15 216.54L241.8 217.32L241.48 218.12L241.19 218.94L240.93 219.77L240.7 220.62L240.51 221.48L240.35 222.35L240.22 223.23L240.13 224.12L240.08 225.02L240.06 225.94L240.08 226.85L240.13 227.75L240.22 228.64L240.35 229.53L240.51 230.4L240.7 231.25L240.93 232.1L241.19 232.93L241.48 233.75L241.8 234.55L242.15 235.34L242.53 236.11L242.94 236.86L243.37 237.59L243.84 238.31L244.33 239.01L244.84 239.68L245.38 240.34L245.95 240.97L246.54 241.59L247.15 242.17L247.79 242.74L248.44 243.28L249.12 243.8L249.81 244.29L250.53 244.75L251.27 245.19L252.02 245.6L252.79 245.98L253.57 246.33L254.38 246.65L255.19 246.94L256.03 247.2L256.87 247.42L257.73 247.62L258.6 247.78L259.48 247.9L260.37 247.99L261.28 248.05L262.19 248.07L469.43 248.07L470.34 248.05L471.24 247.99L472.14 247.9L473.02 247.78L473.89 247.62L474.75 247.42L475.59 247.2L476.42 246.94L477.24 246.65L478.04 246.33L478.83 245.98L479.6 245.6L480.35 245.19L481.09 244.75L481.8 244.29L482.5 243.8L483.17 243.28L483.83 242.74L484.46 242.17L485.08 241.59L485.67 240.97L486.23 240.34L486.77 239.68L487.29 239.01L487.78 238.31L488.24 237.59L488.68 236.86L489.09 236.11L489.47 235.34L489.82 234.55L490.14 233.75L490.43 232.93L490.69 232.1L490.92 231.25L491.11 230.4L491.27 229.53L491.4 228.64L491.49 227.75L491.54 226.85L491.56 225.94L491.54 225.02L491.49 224.12L491.4 223.23L491.27 222.35L491.11 221.48L490.92 220.62L490.69 219.77L490.43 218.94L490.14 218.12L489.82 217.32L489.47 216.54L489.09 215.77L488.68 215.01L488.24 214.28L487.78 213.56L487.29 212.87L486.77 212.19L486.23 211.53L485.67 210.9L485.08 210.29L484.46 209.7L483.83 209.13L483.17 208.59L482.5 208.08L481.8 207.59L481.09 207.12L480.35 206.68L479.6 206.28L478.83 205.9L478.04 205.54L477.24 205.22L476.42 204.93L475.59 204.67L474.75 204.45L473.89 204.25L473.02 204.09L472.14 203.97L471.24 203.88L470.34 203.82L469.43 203.81L262.19 203.81L261.28 203.82ZM190 203.97L188.7 204.17L187.43 204.44L186.18 204.78L184.96 205.2L183.78 205.68L182.63 206.22L181.52 206.83L180.45 207.5L179.42 208.23L178.43 209.01L177.5 209.85L176.61 210.73L175.77 211.67L174.99 212.66L174.26 213.69L173.59 214.76L172.98 215.87L172.44 217.02L171.96 218.2L171.54 219.42L171.2 220.66L170.93 221.94L170.73 223.24L170.61 224.57L170.57 225.91L170.61 227.26L170.73 228.59L170.93 229.89L171.2 231.17L171.54 232.41L171.96 233.63L172.44 234.82L172.98 235.97L173.59 237.08L174.26 238.15L174.99 239.18L175.77 240.16L176.61 241.1L177.49 241.99L178.43 242.83L179.42 243.61L180.45 244.34L181.52 245.01L182.63 245.62L183.78 246.16L184.96 246.64L186.18 247.05L187.43 247.4L188.7 247.67L190 247.86L191.33 247.98L192.68 248.02L194.02 247.98L195.35 247.86L196.65 247.67L197.93 247.4L199.17 247.05L200.39 246.64L201.58 246.16L202.72 245.62L203.84 245.01L204.91 244.34L205.94 243.61L206.92 242.83L207.86 241.99L208.75 241.1L209.58 240.16L210.37 239.18L211.1 238.15L211.76 237.08L212.37 235.97L212.92 234.82L213.4 233.63L213.81 232.41L214.15 231.17L214.43 229.89L214.62 228.59L214.74 227.26L214.78 225.91L214.74 224.57L214.62 223.24L214.43 221.94L214.15 220.66L213.81 219.42L213.4 218.2L212.92 217.02L212.37 215.87L211.76 214.76L211.1 213.69L210.37 212.66L209.58 211.67L208.75 210.73L207.86 209.85L206.92 209.01L205.94 208.23L204.91 207.5L203.84 206.83L202.72 206.22L201.58 205.68L200.39 205.2L199.17 204.78L197.93 204.44L196.65 204.17L195.35 203.97L194.02 203.85L192.68 203.81L191.33 203.85L190 203.97Z" id="d2w3O6fpGQ"></path><path d="M346.24 1.06L359.14 2.37L371.9 4.19L384.48 6.5L396.89 9.3L409.11 12.57L421.13 16.31L432.95 20.51L444.55 25.15L455.92 30.22L467.05 35.72L477.93 41.63L488.55 47.94L498.91 54.65L508.98 61.74L518.76 69.2L528.24 77.03L537.42 85.21L546.27 93.73L554.79 102.58L562.96 111.75L570.79 121.23L578.25 131.01L585.34 141.08L592.05 151.44L598.37 162.06L604.28 172.94L609.78 184.07L614.85 195.44L619.49 207.04L623.68 218.85L627.42 230.88L630.7 243.1L633.5 255.51L635.81 268.09L637.63 280.84L638.94 293.75L639.73 306.81L640 320L639.73 333.19L638.94 346.24L637.63 359.15L635.81 371.9L633.5 384.49L630.7 396.89L627.42 409.12L623.68 421.14L619.49 432.96L614.85 444.55L609.78 455.92L604.28 467.05L598.37 477.94L592.05 488.56L585.34 498.91L578.25 508.98L570.79 518.77L562.96 528.25L554.79 537.42L546.27 546.27L537.42 554.79L528.24 562.97L518.76 570.8L508.98 578.26L498.91 585.35L488.55 592.06L477.93 598.37L467.05 604.28L455.92 609.78L444.55 614.86L432.95 619.49L421.13 623.69L409.11 627.43L396.89 630.7L384.48 633.5L371.9 635.82L359.14 637.63L346.24 638.94L333.18 639.74L319.99 640L306.8 639.74L293.75 638.94L280.84 637.63L268.09 635.82L255.5 633.5L243.09 630.7L230.87 627.43L218.85 623.69L207.03 619.49L195.44 614.86L184.07 609.78L172.94 604.28L162.06 598.37L151.43 592.06L141.08 585.35L131.01 578.26L121.23 570.8L111.75 562.97L102.57 554.79L93.72 546.27L85.21 537.42L77.03 528.25L69.2 518.77L61.74 508.98L54.65 498.91L47.94 488.56L41.63 477.94L35.72 467.05L30.22 455.92L25.15 444.55L20.51 432.96L16.31 421.14L12.57 409.12L9.3 396.89L6.5 384.49L4.19 371.9L2.37 359.15L1.06 346.24L0.27 333.19L0 320L0.27 306.81L1.06 293.75L2.37 280.84L4.19 268.09L6.5 255.51L9.3 243.1L12.57 230.88L16.31 218.86L20.51 207.04L25.15 195.44L30.22 184.07L35.72 172.94L41.63 162.06L47.94 151.44L54.65 141.09L61.74 131.02L69.2 121.23L77.03 111.75L85.21 102.58L93.72 93.73L102.57 85.21L111.75 77.03L121.23 69.21L131.01 61.74L141.08 54.65L151.43 47.95L162.06 41.63L172.94 35.72L184.07 30.22L195.44 25.15L207.03 20.51L218.85 16.31L230.87 12.57L243.09 9.3L255.5 6.5L268.09 4.19L280.84 2.37L293.75 1.06L306.8 0.27L319.99 0L333.18 0.27L346.24 1.06ZM190 392.14L188.7 392.34L187.43 392.61L186.18 392.95L184.96 393.36L183.78 393.84L182.63 394.39L181.52 395L180.45 395.67L179.42 396.39L178.43 397.18L177.5 398.01L176.61 398.9L175.77 399.84L174.99 400.82L174.26 401.85L173.59 402.92L172.98 404.03L172.44 405.18L171.96 406.37L171.54 407.58L171.2 408.83L170.93 410.11L170.73 411.41L170.61 412.73L170.57 414.08L170.61 415.43L170.73 416.76L170.93 418.06L171.2 419.33L171.54 420.58L171.96 421.8L172.44 422.98L172.98 424.13L173.59 425.24L174.26 426.32L174.99 427.35L175.77 428.33L176.61 429.27L177.49 430.16L178.43 430.99L179.42 431.78L180.45 432.51L181.52 433.17L182.63 433.78L183.78 434.33L184.96 434.81L186.18 435.22L187.43 435.56L188.7 435.83L190 436.03L191.33 436.15L192.68 436.19L194.02 436.15L195.35 436.03L196.65 435.83L197.93 435.56L199.17 435.22L200.39 434.81L201.58 434.33L202.72 433.78L203.84 433.17L204.91 432.51L205.94 431.78L206.92 430.99L207.86 430.16L208.75 429.27L209.58 428.33L210.37 427.35L211.1 426.32L211.76 425.24L212.37 424.13L212.92 422.98L213.4 421.8L213.81 420.58L214.15 419.33L214.43 418.06L214.62 416.76L214.74 415.43L214.78 414.08L214.74 412.73L214.62 411.41L214.43 410.11L214.15 408.83L213.81 407.58L213.4 406.37L212.92 405.18L212.37 404.03L211.76 402.92L211.1 401.85L210.37 400.82L209.58 399.84L208.75 398.9L207.86 398.01L206.92 397.18L205.94 396.39L204.91 395.67L203.84 395L202.72 394.39L201.58 393.84L200.39 393.36L199.17 392.95L197.93 392.61L196.65 392.34L195.35 392.14L194.02 392.02L192.68 391.98L191.33 392.02L190 392.14ZM261.28 390.56L260.37 390.62L259.48 390.71L258.6 390.83L257.73 390.99L256.87 391.19L256.03 391.41L255.19 391.67L254.38 391.96L253.57 392.28L252.79 392.63L252.02 393.01L251.27 393.42L250.53 393.86L249.81 394.32L249.12 394.81L248.44 395.33L247.79 395.87L247.15 396.44L246.54 397.03L245.95 397.64L245.38 398.27L244.84 398.93L244.33 399.6L243.84 400.3L243.37 401.02L242.94 401.75L242.53 402.5L242.15 403.27L241.8 404.06L241.48 404.86L241.19 405.68L240.93 406.51L240.7 407.36L240.51 408.21L240.35 409.09L240.22 409.97L240.13 410.86L240.08 411.76L240.06 412.67L240.08 413.59L240.13 414.49L240.22 415.38L240.35 416.26L240.51 417.13L240.7 417.99L240.93 418.84L241.19 419.67L241.48 420.49L241.8 421.29L242.15 422.08L242.53 422.85L242.94 423.6L243.37 424.33L243.84 425.05L244.33 425.74L244.84 426.42L245.38 427.08L245.95 427.71L246.54 428.32L247.15 428.91L247.79 429.48L248.44 430.02L249.12 430.54L249.81 431.03L250.53 431.49L251.27 431.93L252.02 432.34L252.79 432.72L253.57 433.07L254.38 433.39L255.19 433.68L256.03 433.94L256.87 434.16L257.73 434.36L258.6 434.52L259.48 434.64L260.37 434.73L261.28 434.79L262.19 434.81L469.43 434.81L470.34 434.79L471.24 434.73L472.14 434.64L473.02 434.52L473.89 434.36L474.75 434.16L475.59 433.94L476.42 433.68L477.24 433.39L478.04 433.07L478.83 432.72L479.6 432.34L480.35 431.93L481.09 431.49L481.8 431.03L482.5 430.54L483.17 430.02L483.83 429.48L484.46 428.91L485.08 428.32L485.67 427.71L486.23 427.08L486.77 426.42L487.29 425.74L487.78 425.05L488.24 424.33L488.68 423.6L489.09 422.85L489.47 422.08L489.82 421.29L490.14 420.49L490.43 419.67L490.69 418.84L490.92 417.99L491.11 417.13L491.27 416.26L491.4 415.38L491.49 414.49L491.54 413.59L491.56 412.67L491.54 411.76L491.49 410.86L491.4 409.97L491.27 409.09L491.11 408.21L490.92 407.36L490.69 406.51L490.43 405.68L490.14 404.86L489.82 404.06L489.47 403.27L489.09 402.5L488.68 401.75L488.24 401.02L487.78 400.3L487.29 399.6L486.77 398.93L486.23 398.27L485.67 397.64L485.08 397.03L484.46 396.44L483.83 395.87L483.17 395.33L482.5 394.81L481.8 394.32L481.09 393.86L480.35 393.42L479.6 393.01L478.83 392.63L478.04 392.28L477.24 391.96L476.42 391.67L475.59 391.41L474.75 391.19L473.89 390.99L473.02 390.83L472.14 390.71L471.24 390.62L470.34 390.56L469.43 390.54L262.19 390.54L261.28 390.56ZM190 298.05L188.7 298.25L187.43 298.52L186.18 298.86L184.96 299.27L183.78 299.75L182.63 300.3L181.52 300.91L180.45 301.57L179.42 302.3L178.43 303.09L177.5 303.92L176.61 304.81L175.77 305.75L174.99 306.73L174.26 307.76L173.59 308.83L172.98 309.94L172.44 311.09L171.96 312.28L171.54 313.49L171.2 314.74L170.93 316.02L170.73 317.32L170.61 318.64L170.57 319.99L170.61 321.34L170.73 322.67L170.93 323.97L171.2 325.25L171.54 326.49L171.96 327.71L172.44 328.9L172.98 330.05L173.59 331.16L174.26 332.23L174.99 333.26L175.77 334.24L176.61 335.18L177.49 336.07L178.43 336.91L179.42 337.69L180.45 338.42L181.52 339.09L182.63 339.7L183.78 340.24L184.96 340.72L186.18 341.14L187.43 341.48L188.7 341.75L190 341.95L191.33 342.07L192.68 342.11L194.02 342.07L195.35 341.95L196.65 341.75L197.93 341.48L199.17 341.14L200.39 340.72L201.58 340.24L202.72 339.7L203.84 339.09L204.91 338.42L205.94 337.69L206.92 336.91L207.86 336.07L208.75 335.18L209.58 334.25L210.37 333.26L211.1 332.23L211.76 331.16L212.37 330.05L212.92 328.9L213.4 327.71L213.81 326.49L214.15 325.25L214.43 323.97L214.62 322.67L214.74 321.34L214.78 319.99L214.74 318.64L214.62 317.32L214.43 316.02L214.15 314.74L213.81 313.49L213.4 312.28L212.92 311.09L212.37 309.94L211.76 308.83L211.1 307.76L210.37 306.73L209.58 305.75L208.75 304.81L207.86 303.92L206.92 303.09L205.94 302.3L204.91 301.57L203.84 300.91L202.72 300.3L201.58 299.75L200.39 299.27L199.17 298.86L197.93 298.52L196.65 298.25L195.35 298.05L194.02 297.93L192.68 297.89L191.33 297.93L190 298.05ZM261.28 297.19L260.37 297.25L259.48 297.34L258.6 297.46L257.73 297.62L256.87 297.82L256.03 298.05L255.19 298.3L254.38 298.59L253.57 298.91L252.79 299.27L252.02 299.65L251.27 300.05L250.53 300.49L249.81 300.96L249.12 301.45L248.44 301.96L247.79 302.5L247.15 303.07L246.54 303.66L245.95 304.27L245.38 304.9L244.84 305.56L244.33 306.24L243.84 306.93L243.37 307.65L242.94 308.38L242.53 309.14L242.15 309.91L241.8 310.69L241.48 311.49L241.19 312.31L240.93 313.14L240.7 313.99L240.51 314.85L240.35 315.72L240.22 316.6L240.13 317.49L240.08 318.39L240.06 319.31L240.08 320.22L240.13 321.12L240.22 322.01L240.35 322.9L240.51 323.77L240.7 324.62L240.93 325.47L241.19 326.3L241.48 327.12L241.8 327.92L242.15 328.71L242.53 329.48L242.94 330.23L243.37 330.96L243.84 331.68L244.33 332.38L244.84 333.05L245.38 333.71L245.95 334.34L246.54 334.96L247.15 335.54L247.79 336.11L248.44 336.65L249.12 337.17L249.81 337.66L250.53 338.12L251.27 338.56L252.02 338.97L252.79 339.35L253.57 339.7L254.38 340.02L255.19 340.31L256.03 340.57L256.87 340.79L257.73 340.99L258.6 341.15L259.48 341.27L260.37 341.36L261.28 341.42L262.19 341.44L469.43 341.44L470.34 341.42L471.24 341.36L472.14 341.27L473.02 341.15L473.89 340.99L474.75 340.79L475.59 340.57L476.42 340.31L477.24 340.02L478.04 339.7L478.83 339.35L479.6 338.97L480.35 338.56L481.09 338.12L481.8 337.66L482.5 337.17L483.17 336.65L483.83 336.11L484.46 335.54L485.08 334.95L485.67 334.34L486.23 333.71L486.77 333.05L487.29 332.38L487.78 331.68L488.24 330.96L488.68 330.23L489.09 329.48L489.47 328.71L489.82 327.92L490.14 327.12L490.43 326.3L490.69 325.47L490.92 324.62L491.11 323.77L491.27 322.9L491.4 322.01L491.49 321.12L491.54 320.22L491.56 319.31L491.54 318.39L491.49 317.49L491.4 316.6L491.27 315.72L491.11 314.85L490.92 313.99L490.69 313.14L490.43 312.31L490.14 311.49L489.82 310.69L489.47 309.91L489.09 309.14L488.68 308.38L488.24 307.65L487.78 306.93L487.29 306.24L486.77 305.56L486.23 304.9L485.67 304.27L485.08 303.66L484.46 303.07L483.83 302.5L483.17 301.96L482.5 301.45L481.8 300.96L481.09 300.49L480.35 300.05L479.6 299.65L478.83 299.27L478.04 298.91L477.24 298.59L476.42 298.3L475.59 298.05L474.75 297.82L473.89 297.62L473.02 297.46L472.14 297.34L471.24 297.25L470.34 297.19L469.43 297.18L262.19 297.18L261.28 297.19ZM261.28 203.82L260.37 203.88L259.48 203.97L258.6 204.09L257.73 204.25L256.87 204.45L256.03 204.67L255.19 204.93L254.38 205.22L253.57 205.54L252.79 205.9L252.02 206.28L251.27 206.68L250.53 207.12L249.81 207.59L249.12 208.08L248.44 208.59L247.79 209.13L247.15 209.7L246.54 210.29L245.95 210.9L245.38 211.53L244.84 212.19L244.33 212.87L243.84 213.56L243.37 214.28L242.94 215.01L242.53 215.77L242.15 216.54L241.8 217.32L241.48 218.12L241.19 218.94L240.93 219.77L240.7 220.62L240.51 221.48L240.35 222.35L240.22 223.23L240.13 224.12L240.08 225.02L240.06 225.94L240.08 226.85L240.13 227.75L240.22 228.64L240.35 229.53L240.51 230.4L240.7 231.25L240.93 232.1L241.19 232.93L241.48 233.75L241.8 234.55L242.15 235.34L242.53 236.11L242.94 236.86L243.37 237.59L243.84 238.31L244.33 239.01L244.84 239.68L245.38 240.34L245.95 240.97L246.54 241.59L247.15 242.17L247.79 242.74L248.44 243.28L249.12 243.8L249.81 244.29L250.53 244.75L251.27 245.19L252.02 245.6L252.79 245.98L253.57 246.33L254.38 246.65L255.19 246.94L256.03 247.2L256.87 247.42L257.73 247.62L258.6 247.78L259.48 247.9L260.37 247.99L261.28 248.05L262.19 248.07L469.43 248.07L470.34 248.05L471.24 247.99L472.14 247.9L473.02 247.78L473.89 247.62L474.75 247.42L475.59 247.2L476.42 246.94L477.24 246.65L478.04 246.33L478.83 245.98L479.6 245.6L480.35 245.19L481.09 244.75L481.8 244.29L482.5 243.8L483.17 243.28L483.83 242.74L484.46 242.17L485.08 241.59L485.67 240.97L486.23 240.34L486.77 239.68L487.29 239.01L487.78 238.31L488.24 237.59L488.68 236.86L489.09 236.11L489.47 235.34L489.82 234.55L490.14 233.75L490.43 232.93L490.69 232.1L490.92 231.25L491.11 230.4L491.27 229.53L491.4 228.64L491.49 227.75L491.54 226.85L491.56 225.94L491.54 225.02L491.49 224.12L491.4 223.23L491.27 222.35L491.11 221.48L490.92 220.62L490.69 219.77L490.43 218.94L490.14 218.12L489.82 217.32L489.47 216.54L489.09 215.77L488.68 215.01L488.24 214.28L487.78 213.56L487.29 212.87L486.77 212.19L486.23 211.53L485.67 210.9L485.08 210.29L484.46 209.7L483.83 209.13L483.17 208.59L482.5 208.08L481.8 207.59L481.09 207.12L480.35 206.68L479.6 206.28L478.83 205.9L478.04 205.54L477.24 205.22L476.42 204.93L475.59 204.67L474.75 204.45L473.89 204.25L473.02 204.09L472.14 203.97L471.24 203.88L470.34 203.82L469.43 203.81L262.19 203.81L261.28 203.82ZM190 203.97L188.7 204.17L187.43 204.44L186.18 204.78L184.96 205.2L183.78 205.68L182.63 206.22L181.52 206.83L180.45 207.5L179.42 208.23L178.43 209.01L177.5 209.85L176.61 210.73L175.77 211.67L174.99 212.66L174.26 213.69L173.59 214.76L172.98 215.87L172.44 217.02L171.96 218.2L171.54 219.42L171.2 220.66L170.93 221.94L170.73 223.24L170.61 224.57L170.57 225.91L170.61 227.26L170.73 228.59L170.93 229.89L171.2 231.17L171.54 232.41L171.96 233.63L172.44 234.82L172.98 235.97L173.59 237.08L174.26 238.15L174.99 239.18L175.77 240.16L176.61 241.1L177.49 241.99L178.43 242.83L179.42 243.61L180.45 244.34L181.52 245.01L182.63 245.62L183.78 246.16L184.96 246.64L186.18 247.05L187.43 247.4L188.7 247.67L190 247.86L191.33 247.98L192.68 248.02L194.02 247.98L195.35 247.86L196.65 247.67L197.93 247.4L199.17 247.05L200.39 246.64L201.58 246.16L202.72 245.62L203.84 245.01L204.91 244.34L205.94 243.61L206.92 242.83L207.86 241.99L208.75 241.1L209.58 240.16L210.37 239.18L211.1 238.15L211.76 237.08L212.37 235.97L212.92 234.82L213.4 233.63L213.81 232.41L214.15 231.17L214.43 229.89L214.62 228.59L214.74 227.26L214.78 225.91L214.74 224.57L214.62 223.24L214.43 221.94L214.15 220.66L213.81 219.42L213.4 218.2L212.92 217.02L212.37 215.87L211.76 214.76L211.1 213.69L210.37 212.66L209.58 211.67L208.75 210.73L207.86 209.85L206.92 209.01L205.94 208.23L204.91 207.5L203.84 206.83L202.72 206.22L201.58 205.68L200.39 205.2L199.17 204.78L197.93 204.44L196.65 204.17L195.35 203.97L194.02 203.85L192.68 203.81L191.33 203.85L190 203.97Z" id="ahUHtOs8y"></path><path d="M528.91 224.17C467.63 224.17 417.87 174.41 417.87 113.13C417.87 51.85 467.63 2.09 528.91 2.09C590.19 2.09 639.95 51.85 639.95 113.13C639.95 174.41 590.19 224.17 528.91 224.17Z" id="g1TDnp5QP3"></path><path d="M547.89 44.03C547.89 64.48 547.89 117.08 547.89 137.53C547.89 142.37 543.96 146.3 539.12 146.3C534.78 146.3 530.54 146.3 526.21 146.3C521.37 146.3 517.44 142.37 517.44 137.53C517.44 117.08 517.44 64.48 517.44 44.03C517.44 39.19 521.37 35.26 526.21 35.26C530.54 35.26 534.78 35.26 539.12 35.26C543.96 35.26 547.89 39.19 547.89 44.03Z" id="a1JfE0NFRU"></path><path d="M532.66 191.1C523.52 191.1 516.1 183.68 516.1 174.55C516.1 165.41 523.52 157.99 532.66 157.99C541.8 157.99 549.22 165.41 549.22 174.55C549.22 183.68 541.8 191.1 532.66 191.1Z" id="b1RDPGFdXG"></path></defs><g><g><g><use xlink:href="#asoNTaqSy" opacity="1" fill="#ffffff" fill-opacity="1"></use></g><g><use xlink:href="#d2w3O6fpGQ" opacity="1" fill="#ffbf46" fill-opacity="1"></use><g><use xlink:href="#d2w3O6fpGQ" opacity="1" fill-opacity="0" stroke="#000000" stroke-width="1" stroke-opacity="0"></use></g></g><g><use xlink:href="#ahUHtOs8y" opacity="1" fill="#000000" fill-opacity="0"></use><g><use xlink:href="#ahUHtOs8y" opacity="1" fill-opacity="0" stroke="#000000" stroke-width="1" stroke-opacity="0"></use></g></g><g><use xlink:href="#g1TDnp5QP3" opacity="1" fill="#f60202" fill-opacity="1"></use><g><use xlink:href="#g1TDnp5QP3" opacity="1" fill-opacity="0" stroke="#000000" stroke-width="1" stroke-opacity="0"></use></g></g><g><use xlink:href="#a1JfE0NFRU" opacity="1" fill="#ffffff" fill-opacity="1"></use><g><use xlink:href="#a1JfE0NFRU" opacity="1" fill-opacity="0" stroke="#000000" stroke-width="1" stroke-opacity="0"></use></g></g><g><use xlink:href="#b1RDPGFdXG" opacity="1" fill="#ffffff" fill-opacity="1"></use><g><use xlink:href="#b1RDPGFdXG" opacity="1" fill-opacity="0" stroke="#000000" stroke-width="1" stroke-opacity="0"></use></g></g></g></g></svg>