<?xml version="1.0" encoding="UTF-8" standalone="no"?>
<!DOCTYPE svg PUBLIC "-//W3C//DTD SVG 1.1//EN" "http://www.w3.org/Graphics/SVG/1.1/DTD/svg11.dtd">
<svg version="1.1" xmlns="http://www.w3.org/2000/svg" xmlns:xlink="http://www.w3.org/1999/xlink" preserveAspectRatio="xMidYMid meet" viewBox="0 0 640 640" width="640" height="640"><defs><path d="M618.52 192.43C618.52 208.85 605.21 222.16 588.8 222.16C498.02 222.16 255.43 222.16 164.66 222.16C148.24 222.16 134.94 208.85 134.94 192.43C134.94 185.99 134.94 196.4 134.94 189.96C134.94 173.54 148.24 160.23 164.66 160.23C255.43 160.23 498.02 160.23 588.8 160.23C605.21 160.23 618.52 173.54 618.52 189.96C618.52 196.4 618.52 185.99 618.52 192.43Z" id="bEOAeUgVv"></path><path d="M618.52 192.43C618.52 208.85 605.21 222.16 588.8 222.16C498.02 222.16 255.43 222.16 164.66 222.16C148.24 222.16 134.94 208.85 134.94 192.43C134.94 185.99 134.94 196.4 134.94 189.96C134.94 173.54 148.24 160.23 164.66 160.23C255.43 160.23 498.02 160.23 588.8 160.23C605.21 160.23 618.52 173.54 618.52 189.96C618.52 196.4 618.52 185.99 618.52 192.43Z" id="a7XMNBy5hK"></path><path d="M622.06 324.53C622.06 340.95 608.75 354.25 592.34 354.25C501.56 354.25 258.97 354.25 168.2 354.25C151.78 354.25 138.47 340.95 138.47 324.53C138.47 318.09 138.47 328.49 138.47 322.05C138.47 305.64 151.78 292.33 168.2 292.33C258.97 292.33 501.56 292.33 592.34 292.33C608.75 292.33 622.06 305.64 622.06 322.05C622.06 328.49 622.06 318.09 622.06 324.53Z" id="c8Tee0jJl"></path><path d="M622.06 324.53C622.06 340.95 608.75 354.25 592.34 354.25C501.56 354.25 258.97 354.25 168.2 354.25C151.78 354.25 138.47 340.95 138.47 324.53C138.47 318.09 138.47 328.49 138.47 322.05C138.47 305.64 151.78 292.33 168.2 292.33C258.97 292.33 501.56 292.33 592.34 292.33C608.75 292.33 622.06 305.64 622.06 322.05C622.06 328.49 622.06 318.09 622.06 324.53Z" id="eqO8PkbOl"></path><path d="M618.52 457.05C618.52 473.46 605.21 486.77 588.8 486.77C498.02 486.77 255.43 486.77 164.66 486.77C148.24 486.77 134.94 473.46 134.94 457.05C134.94 450.61 134.94 461.01 134.94 454.57C134.94 438.16 148.24 424.85 164.66 424.85C255.43 424.85 498.02 424.85 588.8 424.85C605.21 424.85 618.52 438.16 618.52 454.57C618.52 461.01 618.52 450.61 618.52 457.05Z" id="cWLdL4fE8"></path><path d="M618.52 457.05C618.52 473.46 605.21 486.77 588.8 486.77C498.02 486.77 255.43 486.77 164.66 486.77C148.24 486.77 134.94 473.46 134.94 457.05C134.94 450.61 134.94 461.01 134.94 454.57C134.94 438.16 148.24 424.85 164.66 424.85C255.43 424.85 498.02 424.85 588.8 424.85C605.21 424.85 618.52 438.16 618.52 454.57C618.52 461.01 618.52 450.61 618.52 457.05Z" id="b2sbMTw0lA"></path><path d="M101.56 196.31C101.56 210.58 89.99 222.16 75.71 222.16C63.78 222.16 53.82 222.16 41.89 222.16C27.62 222.16 16.05 210.58 16.05 196.31C16.05 189.1 16.05 193.3 16.05 186.08C16.05 171.81 27.62 160.23 41.89 160.23C53.82 160.23 63.78 160.23 75.71 160.23C89.99 160.23 101.56 171.81 101.56 186.08C101.56 193.3 101.56 189.1 101.56 196.31Z" id="h5xpk4j8pp"></path><path d="M101.56 196.31C101.56 210.58 89.99 222.16 75.71 222.16C63.78 222.16 53.82 222.16 41.89 222.16C27.62 222.16 16.05 210.58 16.05 196.31C16.05 189.1 16.05 193.3 16.05 186.08C16.05 171.81 27.62 160.23 41.89 160.23C53.82 160.23 63.78 160.23 75.71 160.23C89.99 160.23 101.56 171.81 101.56 186.08C101.56 193.3 101.56 189.1 101.56 196.31Z" id="aDahFBdwB"></path><path d="M101.56 329.94C101.56 344.22 89.99 355.79 75.71 355.79C63.78 355.79 53.82 355.79 41.89 355.79C27.62 355.79 16.05 344.22 16.05 329.94C16.05 322.73 16.05 326.93 16.05 319.71C16.05 305.44 27.62 293.86 41.89 293.86C53.82 293.86 63.78 293.86 75.71 293.86C89.99 293.86 101.56 305.44 101.56 319.71C101.56 326.93 101.56 322.73 101.56 329.94Z" id="b9gqRyxW9"></path><path d="M101.56 329.94C101.56 344.22 89.99 355.79 75.71 355.79C63.78 355.79 53.82 355.79 41.89 355.79C27.62 355.79 16.05 344.22 16.05 329.94C16.05 322.73 16.05 326.93 16.05 319.71C16.05 305.44 27.62 293.86 41.89 293.86C53.82 293.86 63.78 293.86 75.71 293.86C89.99 293.86 101.56 305.44 101.56 319.71C101.56 326.93 101.56 322.73 101.56 329.94Z" id="b3DOq80K4"></path><path d="M101.56 460.92C101.56 475.2 89.99 486.77 75.71 486.77C63.78 486.77 53.82 486.77 41.89 486.77C27.62 486.77 16.05 475.2 16.05 460.92C16.05 453.71 16.05 457.91 16.05 450.69C16.05 436.42 27.62 424.85 41.89 424.85C53.82 424.85 63.78 424.85 75.71 424.85C89.99 424.85 101.56 436.42 101.56 450.69C101.56 457.91 101.56 453.71 101.56 460.92Z" id="c5xLmPBWBm"></path><path d="M101.56 460.92C101.56 475.2 89.99 486.77 75.71 486.77C63.78 486.77 53.82 486.77 41.89 486.77C27.62 486.77 16.05 475.2 16.05 460.92C16.05 453.71 16.05 457.91 16.05 450.69C16.05 436.42 27.62 424.85 41.89 424.85C53.82 424.85 63.78 424.85 75.71 424.85C89.99 424.85 101.56 436.42 101.56 450.69C101.56 457.91 101.56 453.71 101.56 460.92Z" id="a5w2BvKf9g"></path><path d="M507.61 264.78C434.55 264.78 375.23 205.46 375.23 132.39C375.23 59.32 434.55 0 507.61 0C580.68 0 640 59.32 640 132.39C640 205.46 580.68 264.78 507.61 264.78Z" id="a2frfjBdFh"></path><path d="M507.62 236.64C494.45 236.64 483.75 225.95 483.75 212.78C483.75 199.61 494.45 188.92 507.62 188.92C520.79 188.92 531.48 199.61 531.48 212.78C531.48 225.95 520.79 236.64 507.62 236.64Z" id="ad7VCy3rF"></path><path d="M508.13 23.82C520.71 23.82 530.91 34.02 530.91 46.6C530.91 73.1 530.91 129.84 530.91 156.35C530.91 168.93 520.71 179.12 508.13 179.12C503.37 179.12 511.86 179.12 507.1 179.12C494.52 179.12 484.32 168.93 484.32 156.35C484.32 129.84 484.32 73.1 484.32 46.6C484.32 34.02 494.52 23.82 507.1 23.82C511.86 23.82 503.37 23.82 508.13 23.82Z" id="g3j21Cw8B2"></path></defs><g><g><g><use xlink:href="#bEOAeUgVv" opacity="1" fill="#ffffff" fill-opacity="1"></use><g><use xlink:href="#bEOAeUgVv" opacity="1" fill-opacity="0" stroke="#000000" stroke-width="1" stroke-opacity="0"></use></g></g><g><use xlink:href="#a7XMNBy5hK" opacity="1" fill="#000000" fill-opacity="0"></use><g><use xlink:href="#a7XMNBy5hK" opacity="1" fill-opacity="0" stroke="#000000" stroke-width="1" stroke-opacity="0"></use></g></g><g><use xlink:href="#c8Tee0jJl" opacity="1" fill="#ffffff" fill-opacity="1"></use><g><use xlink:href="#c8Tee0jJl" opacity="1" fill-opacity="0" stroke="#000000" stroke-width="1" stroke-opacity="0"></use></g></g><g><use xlink:href="#eqO8PkbOl" opacity="1" fill="#000000" fill-opacity="0"></use><g><use xlink:href="#eqO8PkbOl" opacity="1" fill-opacity="0" stroke="#000000" stroke-width="1" stroke-opacity="0"></use></g></g><g><use xlink:href="#cWLdL4fE8" opacity="1" fill="#ffffff" fill-opacity="1"></use><g><use xlink:href="#cWLdL4fE8" opacity="1" fill-opacity="0" stroke="#000000" stroke-width="1" stroke-opacity="0"></use></g></g><g><use xlink:href="#b2sbMTw0lA" opacity="1" fill="#000000" fill-opacity="0"></use><g><use xlink:href="#b2sbMTw0lA" opacity="1" fill-opacity="0" stroke="#000000" stroke-width="1" stroke-opacity="0"></use></g></g><g><use xlink:href="#h5xpk4j8pp" opacity="1" fill="#ffffff" fill-opacity="1"></use><g><use xlink:href="#h5xpk4j8pp" opacity="1" fill-opacity="0" stroke="#000000" stroke-width="1" stroke-opacity="0"></use></g></g><g><use xlink:href="#aDahFBdwB" opacity="1" fill="#000000" fill-opacity="0"></use><g><use xlink:href="#aDahFBdwB" opacity="1" fill-opacity="0" stroke="#000000" stroke-width="1" stroke-opacity="0"></use></g></g><g><use xlink:href="#b9gqRyxW9" opacity="1" fill="#ffffff" fill-opacity="1"></use><g><use xlink:href="#b9gqRyxW9" opacity="1" fill-opacity="0" stroke="#000000" stroke-width="1" stroke-opacity="0"></use></g></g><g><use xlink:href="#b3DOq80K4" opacity="1" fill="#000000" fill-opacity="0"></use><g><use xlink:href="#b3DOq80K4" opacity="1" fill-opacity="0" stroke="#000000" stroke-width="1" stroke-opacity="0"></use></g></g><g><use xlink:href="#c5xLmPBWBm" opacity="1" fill="#ffffff" fill-opacity="1"></use><g><use xlink:href="#c5xLmPBWBm" opacity="1" fill-opacity="0" stroke="#000000" stroke-width="1" stroke-opacity="0"></use></g></g><g><use xlink:href="#a5w2BvKf9g" opacity="1" fill="#000000" fill-opacity="0"></use><g><use xlink:href="#a5w2BvKf9g" opacity="1" fill-opacity="0" stroke="#000000" stroke-width="1" stroke-opacity="0"></use></g></g><g><use xlink:href="#a2frfjBdFh" opacity="1" fill="#ff2823" fill-opacity="1"></use><g><use xlink:href="#a2frfjBdFh" opacity="1" fill-opacity="0" stroke="#000000" stroke-width="1" stroke-opacity="0"></use></g></g><g><use xlink:href="#ad7VCy3rF" opacity="1" fill="#ffffff" fill-opacity="1"></use><g><use xlink:href="#ad7VCy3rF" opacity="1" fill-opacity="0" stroke="#000000" stroke-width="1" stroke-opacity="0"></use></g></g><g><use xlink:href="#g3j21Cw8B2" opacity="1" fill="#ffffff" fill-opacity="1"></use></g></g></g></svg>