<?xml version="1.0" encoding="UTF-8" standalone="no"?>
<!DOCTYPE svg PUBLIC "-//W3C//DTD SVG 1.1//EN" "http://www.w3.org/Graphics/SVG/1.1/DTD/svg11.dtd">
<svg version="1.1" xmlns="http://www.w3.org/2000/svg" xmlns:xlink="http://www.w3.org/1999/xlink" preserveAspectRatio="xMidYMid meet" viewBox="0 0 640 640" width="640" height="640"><defs><path d="M572.23 274.19C589.88 274.19 604.18 288.49 604.18 306.14C604.18 315.04 604.18 309.77 604.18 318.67C604.18 336.32 589.88 350.62 572.23 350.62C464.63 350.62 173.79 350.62 66.2 350.62C48.55 350.62 34.24 336.32 34.24 318.67C34.24 309.77 34.24 315.04 34.24 306.14C34.24 288.49 48.55 274.19 66.2 274.19C173.79 274.19 464.63 274.19 572.23 274.19Z" id="b8E1bOiUE0"></path><path d="M358.52 575.79C358.48 593.43 344.15 607.71 326.5 607.68C317.6 607.66 322.87 607.67 313.97 607.65C296.32 607.61 282.05 593.28 282.08 575.63C282.3 468.04 282.89 177.2 283.1 69.6C283.14 51.95 297.48 37.68 315.12 37.71C324.02 37.73 318.75 37.72 327.65 37.74C345.3 37.77 359.58 52.11 359.54 69.75C359.32 177.35 358.73 468.19 358.52 575.79Z" id="eFMHQYOA"></path></defs><g><g><g><use xlink:href="#b8E1bOiUE0" opacity="1" fill="#ffffff" fill-opacity="1"></use></g><g><use xlink:href="#eFMHQYOA" opacity="1" fill="#ffffff" fill-opacity="1"></use></g></g></g></svg>